<?xml version="1.0" standalone="no"?>
<!DOCTYPE svg PUBLIC "-//W3C//DTD SVG 20010904//EN"
 "http://www.w3.org/TR/2001/REC-SVG-20010904/DTD/svg10.dtd">
<svg version="1.0" xmlns="http://www.w3.org/2000/svg"
 width="1254.000000pt" height="1254.000000pt" viewBox="0 0 1254.000000 1254.000000"
 preserveAspectRatio="xMidYMid meet">

<g transform="translate(0.000000,1254.000000) scale(0.100000,-0.100000)"
fill="#2b211b" stroke="none">
<path d="M5970 11105 c0 -3 50 -84 110 -179 l110 -174 3 -138 2 -139 43 -3 42
-3 0 140 0 140 108 168 c59 92 111 174 116 181 5 9 -5 12 -41 12 l-49 0 -56
-87 c-31 -49 -70 -112 -88 -141 -38 -62 -23 -74 -130 106 l-73 122 -48 0 c-27
0 -49 -2 -49 -5z"/>
<path d="M5743 11093 c-18 -2 -33 -7 -33 -11 0 -4 18 -115 40 -246 23 -131 39
-240 37 -243 -3 -2 -103 93 -223 212 l-219 217 -45 -9 c-37 -6 -45 -12 -43
-28 8 -70 97 -591 102 -597 6 -7 81 8 81 16 0 1 -9 50 -20 109 -24 132 -60
353 -60 370 0 6 98 -87 219 -207 l219 -219 47 7 47 7 -7 57 c-18 151 -92 566
-100 567 -6 1 -25 0 -42 -2z"/>
<path d="M6981 11008 c-6 -29 -27 -136 -46 -238 -19 -102 -41 -218 -49 -258
-10 -54 -11 -74 -2 -77 6 -2 69 -15 139 -29 141 -28 192 -25 249 15 78 56 87
185 16 251 l-28 26 32 20 c47 29 68 71 68 134 0 66 -25 110 -79 137 -31 16
-249 71 -283 71 -4 0 -11 -24 -17 -52z m169 -53 c85 -20 106 -32 121 -67 9
-22 9 -38 0 -68 -15 -51 -44 -70 -101 -69 -47 1 -145 21 -144 29 1 14 26 167
30 178 4 15 14 15 94 -3z m-50 -270 c117 -25 149 -51 150 -123 0 -49 -29 -86
-75 -98 -23 -6 -192 20 -203 31 -3 3 25 163 34 193 4 15 8 15 94 -3z"/>
<path d="M4768 10864 l-36 -15 -6 -92 c-12 -191 -28 -579 -24 -583 3 -2 22 2
44 9 l39 14 3 89 3 89 137 48 137 48 52 -58 c29 -32 52 -61 53 -65 0 -12 41
-9 72 5 l28 12 -138 156 c-75 85 -177 201 -226 257 -48 56 -91 102 -95 101 -3
0 -22 -7 -43 -15z m145 -219 c63 -73 91 -112 84 -117 -17 -11 -198 -71 -201
-67 -7 9 7 310 15 302 4 -4 50 -57 102 -118z"/>
<path d="M7570 10608 c-118 -139 -216 -257 -218 -263 -1 -6 16 -16 38 -22 l41
-10 56 68 c32 38 57 69 58 69 0 0 61 -22 135 -49 l135 -48 5 -89 5 -88 38 -15
c20 -7 40 -11 43 -8 4 3 -1 133 -10 289 -9 156 -17 305 -19 333 -2 42 -6 52
-27 61 -63 29 -52 38 -280 -228z m239 -86 c1 -78 0 -83 -18 -77 -110 35 -186
63 -185 69 1 4 44 59 95 122 l94 115 6 -73 c4 -40 7 -110 8 -156z"/>
<path d="M4235 10648 c-88 -44 -161 -81 -163 -83 -3 -3 264 -555 273 -563 6
-6 64 18 71 29 2 4 -23 62 -56 128 l-60 121 23 14 c12 8 66 36 119 62 l97 48
-16 30 c-9 17 -17 32 -18 34 -2 2 -53 -22 -114 -52 -61 -31 -115 -56 -121 -56
-10 0 -90 150 -90 169 0 5 56 36 125 70 l126 60 -17 33 c-9 18 -17 34 -18 34
0 1 -73 -34 -161 -78z"/>
<path d="M8139 10385 c-79 -156 -141 -286 -139 -288 8 -7 308 -157 314 -157 7
0 39 61 34 64 -2 2 -52 29 -113 60 -60 32 -114 62 -119 66 -4 5 48 119 117
254 l125 246 -38 20 -39 20 -142 -285z"/>
<path d="M3733 10367 c-78 -51 -145 -95 -149 -99 -3 -4 44 -87 107 -185 185
-292 229 -354 242 -346 7 4 76 49 155 100 l142 93 -16 31 c-19 37 -16 38 -156
-52 -60 -40 -110 -70 -112 -68 -11 12 -106 163 -106 168 0 3 46 35 102 71 56
36 106 68 111 71 6 4 1 20 -12 37 l-22 31 -110 -71 c-93 -60 -112 -69 -123
-57 -14 15 -96 146 -96 153 0 2 52 37 115 77 63 40 115 76 115 81 0 12 -31 58
-39 57 -3 0 -70 -42 -148 -92z"/>
<path d="M8590 10184 c-80 -125 -156 -244 -168 -265 l-24 -39 145 -95 c80 -52
148 -95 151 -95 7 0 39 61 34 64 -2 2 -52 35 -111 75 -69 46 -105 76 -101 84
4 7 50 77 102 157 123 188 194 301 190 304 -39 25 -59 36 -65 36 -4 0 -73
-102 -153 -226z"/>
<path d="M3252 10013 l-173 -146 27 -28 27 -28 56 47 c31 26 63 53 73 60 14
11 38 -12 194 -198 98 -115 181 -210 184 -210 3 0 19 13 34 29 l27 28 -49 54
c-56 62 -240 276 -283 330 l-29 37 70 57 70 56 -22 29 c-13 16 -25 29 -28 29
-3 0 -83 -65 -178 -146z"/>
<path d="M8984 9865 c-109 -130 -199 -240 -199 -244 0 -6 73 -71 258 -229 15
-14 20 -13 42 8 14 13 25 27 25 30 0 4 -50 49 -110 100 l-110 92 29 37 c17 20
47 55 68 78 l38 43 95 -80 c52 -44 100 -80 106 -80 10 0 44 41 44 53 0 2 -43
38 -95 81 -52 43 -95 82 -95 87 0 4 26 38 57 76 31 37 58 70 59 72 2 2 45 -32
96 -75 143 -121 126 -113 155 -80 13 16 21 32 16 36 -12 11 -246 203 -264 218
-14 10 -42 -19 -215 -223z"/>
<path d="M2909 9700 c-77 -40 -139 -134 -139 -209 0 -47 39 -110 86 -137 60
-35 105 -29 220 28 111 57 143 64 183 44 36 -19 51 -44 51 -86 0 -99 -134
-186 -207 -135 -20 14 -23 13 -47 -18 -14 -19 -26 -37 -26 -41 0 -14 71 -36
117 -36 87 1 185 67 226 152 41 87 9 192 -73 236 -63 33 -112 26 -229 -31
-116 -58 -157 -61 -195 -16 -41 48 -32 92 30 154 36 36 39 37 94 32 54 -5 58
-4 74 24 16 28 16 28 -13 44 -40 20 -108 18 -152 -5z"/>
<path d="M9511 9638 c-85 -57 -96 -142 -36 -278 21 -47 40 -106 43 -132 4 -40
1 -50 -21 -72 -56 -56 -152 -23 -196 67 -24 49 -26 84 -9 122 10 23 9 29 -14
52 -30 30 -44 25 -64 -23 -55 -132 60 -311 207 -322 75 -6 122 17 161 77 26
40 29 53 25 96 -3 29 -23 90 -46 142 -57 126 -55 187 8 213 66 27 159 -41 168
-123 3 -24 0 -53 -6 -65 -9 -18 -7 -24 20 -43 31 -22 32 -22 45 -4 56 76 12
216 -87 282 -59 39 -150 44 -198 11z"/>
<path d="M2483 9206 c-56 -79 -104 -149 -107 -157 -3 -9 77 -72 247 -194 138
-99 255 -180 259 -180 8 0 218 284 218 294 0 3 -12 15 -27 25 -26 19 -26 19
-47 -6 -19 -23 -133 -177 -147 -201 -4 -6 -43 16 -93 52 l-85 62 74 103 c41
56 75 108 75 114 0 11 -38 42 -51 42 -4 0 -42 -47 -84 -105 -48 -67 -81 -103
-88 -98 -28 17 -147 105 -147 109 0 2 39 57 86 120 47 64 84 117 82 118 -2 1
-16 12 -33 23 l-30 21 -102 -142z"/>
<path d="M9947 9287 l-27 -22 51 -78 c29 -42 50 -79 48 -81 -2 -1 -103 -70
-224 -151 -121 -81 -223 -151 -227 -154 -10 -9 34 -72 47 -67 6 2 105 68 220
148 116 79 215 147 222 151 8 5 30 -19 63 -68 l51 -76 29 18 c17 9 30 21 30
25 0 9 -239 366 -249 373 -4 2 -19 -6 -34 -18z"/>
<path d="M10058 8621 c-147 -75 -270 -139 -273 -143 -6 -6 163 -358 172 -358
3 0 21 11 61 36 2 1 -29 65 -67 143 l-71 141 90 45 91 46 59 -126 59 -125 35
21 35 21 -60 120 c-33 66 -59 121 -57 123 2 1 40 21 86 44 l82 41 66 -135 c36
-74 68 -135 71 -135 2 0 17 7 33 15 25 13 28 19 21 39 -13 32 -161 326 -164
324 -1 0 -122 -62 -269 -137z"/>
<path d="M7445 8509 c-750 -28 -1515 -300 -2115 -752 -158 -120 -404 -356
-510 -491 l-75 -95 -117 0 c-123 -1 -454 -25 -550 -41 -73 -11 -96 -24 -104
-57 -8 -32 4 -54 39 -71 23 -11 48 -9 179 17 217 42 478 73 478 56 0 -4 -28
-53 -62 -109 -150 -247 -237 -492 -263 -742 l-7 -61 -141 -48 c-363 -121 -514
-237 -417 -318 61 -52 273 -57 542 -13 l77 12 36 -74 c154 -324 475 -524 965
-601 423 -67 915 -52 1425 45 341 64 427 97 409 157 -18 65 -86 73 -177 23
-208 -115 -756 -201 -1207 -190 -270 7 -549 47 -730 105 -193 63 -384 185
-484 311 -60 75 -142 227 -129 238 5 4 80 21 168 40 263 53 663 157 1068 276
15 5 17 -2 17 -49 0 -29 -11 -91 -25 -138 -56 -184 -96 -358 -102 -434 -5 -76
-4 -81 21 -104 49 -46 174 -38 215 15 10 13 22 45 26 71 33 227 117 598 158
695 13 31 21 35 103 57 166 45 525 172 703 249 l176 76 199 4 c551 9 1040
-101 1311 -293 237 -168 310 -400 218 -690 -128 -406 -508 -783 -1072 -1064
-321 -160 -754 -300 -1136 -366 -613 -106 -1209 -78 -1720 80 -303 94 -469
201 -545 351 -23 45 -25 60 -26 197 -1 136 -2 150 -22 169 -25 26 -105 35
-156 18 -118 -39 -80 -278 73 -466 181 -222 646 -406 1211 -478 721 -93 1510
6 2270 285 538 198 990 526 1230 894 205 315 259 676 138 922 -57 117 -199
244 -364 326 -84 42 -276 105 -402 131 -237 49 -399 66 -717 75 l-250 7 40 18
c182 82 439 226 595 334 524 361 774 829 620 1160 -113 243 -475 353 -1085
331z m340 -110 c263 -31 416 -112 482 -256 90 -196 -25 -486 -309 -772 -214
-217 -545 -436 -973 -646 l-190 -93 -165 -12 c-91 -6 -219 -18 -284 -26 -66
-7 -122 -11 -124 -9 -11 11 164 347 306 585 92 154 346 539 450 680 73 99 79
137 29 174 -36 27 -121 29 -159 4 -46 -30 -280 -386 -455 -693 -75 -131 -102
-181 -223 -410 -26 -49 -78 -156 -114 -236 l-67 -145 -77 -13 c-42 -7 -84 -14
-92 -17 -12 -3 -20 13 -33 65 -37 144 -120 276 -229 368 -144 122 -343 190
-631 218 l-67 7 31 40 c18 22 80 90 138 151 547 572 1367 948 2261 1036 126
12 392 12 495 0z m-2800 -1329 c330 -31 545 -148 653 -358 44 -84 77 -185 68
-208 -3 -7 -14 -14 -25 -14 -24 0 -421 -85 -626 -135 -133 -32 -567 -147 -604
-160 -27 -10 3 175 55 340 42 133 172 391 253 503 36 49 39 49 226 32z m1475
-581 c-52 -23 -150 -61 -218 -85 -118 -42 -123 -43 -116 -22 9 30 42 108 46
109 20 6 296 37 333 37 l50 1 -95 -40z m-546 -121 c-34 -80 -47 -98 -70 -98
-14 0 -30 148 -17 160 8 9 46 16 95 19 l27 1 -35 -82z m-180 15 c2 -16 8 -54
11 -85 l6 -57 -203 -65 c-237 -76 -432 -132 -632 -180 -191 -47 -421 -90 -439
-83 -15 5 -37 97 -37 153 0 36 -12 31 235 103 226 66 963 238 1027 240 21 1
27 -4 32 -26z m-1381 -375 c3 -29 9 -67 12 -84 8 -39 8 -39 -129 -54 -164 -17
-244 4 -198 53 35 37 245 135 293 136 12 1 18 -12 22 -51z"/>
<path d="M2572 8361 l-23 -40 44 -25 c24 -14 46 -26 49 -26 6 0 48 67 48 75 0
3 -86 55 -92 55 -3 0 -14 -18 -26 -39z"/>
<path d="M1915 8144 c-8 -20 -15 -39 -15 -43 0 -3 106 -112 235 -241 246 -246
245 -245 261 -182 5 20 -4 35 -55 86 -33 34 -61 65 -61 70 0 5 23 66 52 137
l52 129 97 0 c94 0 97 1 103 24 3 13 9 31 12 40 6 14 -27 16 -330 16 l-336 0
-15 -36z m385 -47 c0 -5 -80 -200 -83 -203 -2 -2 -50 44 -107 101 l-105 105
148 0 c81 0 147 -2 147 -3z"/>
<path d="M10306 8085 c-153 -52 -281 -96 -283 -99 -4 -4 15 -76 21 -76 1 0 54
17 118 39 l117 38 14 -41 14 -41 -89 -130 -88 -131 16 -47 c9 -26 17 -47 19
-47 2 0 42 59 90 131 l86 132 31 -37 c16 -20 43 -43 58 -51 66 -34 177 -6 220
56 42 58 39 126 -10 273 -23 69 -45 126 -48 125 -4 0 -132 -43 -286 -94z m273
-84 c35 -109 27 -167 -29 -196 -75 -39 -131 3 -173 128 -19 56 -23 79 -14 82
84 32 183 61 188 56 4 -3 16 -35 28 -70z"/>
<path d="M1804 7632 c-53 -33 -74 -76 -108 -215 -18 -72 -32 -133 -31 -135 3
-4 565 -142 579 -142 12 0 33 67 24 75 -2 1 -46 12 -98 25 -52 12 -103 24
-113 27 -16 4 -18 11 -12 41 4 21 11 42 16 48 5 6 70 38 143 70 l134 59 12 44
c6 24 9 45 7 48 -3 2 -66 -23 -140 -56 -74 -34 -138 -61 -141 -61 -3 0 -6 16
-6 35 0 48 -22 88 -66 122 -49 37 -152 45 -200 15z m165 -96 c22 -22 26 -35
25 -79 -1 -28 -10 -77 -20 -108 l-19 -57 -93 23 c-51 12 -95 25 -98 28 -7 7
11 96 33 155 9 25 25 48 41 57 38 22 99 13 131 -19z"/>
<path d="M10470 7537 c-67 -15 -116 -44 -163 -97 -46 -50 -62 -82 -77 -153
-28 -140 37 -294 154 -362 175 -101 406 -10 462 183 12 40 15 76 11 124 -18
211 -192 348 -387 305z m163 -90 c150 -63 199 -284 89 -401 -42 -44 -118 -76
-183 -76 -203 0 -314 245 -180 401 65 77 189 111 274 76z"/>
<path d="M1776 7030 c-63 -25 -129 -89 -155 -150 -26 -60 -58 -309 -42 -319
10 -7 535 -72 572 -71 13 0 18 22 29 119 21 194 5 272 -72 350 -78 80 -231
112 -332 71z m181 -76 c127 -43 172 -129 151 -291 -10 -76 -12 -83 -33 -83
-24 0 -418 50 -421 53 -4 6 18 157 28 187 22 72 77 122 153 141 48 11 71 10
122 -7z"/>
<path d="M10403 6731 c-101 -46 -142 -214 -85 -345 54 -120 218 -143 286 -39
14 21 38 87 54 147 36 131 55 160 107 164 69 6 113 -71 95 -168 -8 -41 -45
-90 -79 -101 -8 -3 -8 -15 0 -42 9 -35 13 -38 36 -32 110 27 161 207 96 336
-45 89 -123 119 -213 83 -53 -21 -85 -76 -117 -201 -30 -120 -45 -148 -82
-161 -40 -14 -90 12 -113 58 -38 74 -10 194 51 221 32 14 37 31 25 77 -8 27
-8 27 -61 3z"/>
<path d="M1870 5592 c-43 -21 -80 -75 -80 -116 0 -77 70 -141 146 -133 139 14
167 188 42 253 -36 19 -66 18 -108 -4z"/>
<path d="M10544 5591 c-48 -29 -64 -59 -64 -117 0 -60 24 -99 76 -120 44 -18
68 -18 111 3 45 21 73 67 73 118 0 103 -111 168 -196 116z"/>
<path d="M2430 4590 c0 -29 -370 -214 -412 -206 -28 5 -28 5 47 -144 41 -83
78 -150 81 -150 19 0 94 24 94 30 0 4 -18 10 -41 13 -22 3 -48 12 -58 21 -26
24 -75 132 -68 150 6 14 165 96 186 96 4 0 18 -23 31 -51 20 -42 22 -55 13
-80 -6 -16 -9 -29 -6 -29 15 0 103 44 103 52 0 5 -5 6 -10 3 -22 -13 -50 8
-81 61 -17 30 -30 57 -28 58 11 10 170 86 179 86 14 0 70 -118 70 -148 0 -13
-7 -36 -15 -52 -9 -17 -13 -30 -9 -30 5 0 46 26 73 46 4 3 -140 294 -145 294
-2 0 -4 -9 -4 -20z"/>
<path d="M10116 4560 c-46 -14 -72 -47 -126 -157 -27 -58 -50 -106 -50 -109 0
-2 8 1 18 7 14 9 52 -6 210 -86 137 -68 195 -103 201 -118 7 -19 12 -15 40 40
36 73 38 83 12 59 -15 -13 -26 -16 -43 -9 -37 13 -148 73 -148 79 0 3 5 14 10
25 8 15 22 19 58 19 74 1 193 19 209 32 14 11 53 80 53 93 0 3 -12 -3 -27 -15
-18 -13 -56 -23 -108 -30 -44 -5 -96 -12 -115 -15 l-35 -4 3 53 c3 48 1 57
-28 89 -40 46 -84 61 -134 47z m59 -76 c41 -19 66 -55 67 -95 1 -32 -30 -109
-44 -109 -21 0 -188 96 -188 108 0 28 33 83 59 97 34 19 66 18 106 -1z"/>
<path d="M2534 4151 c-48 -29 -58 -67 -49 -174 14 -153 12 -167 -19 -193 -57
-50 -144 -15 -166 67 -13 45 8 136 35 159 33 27 12 30 -35 4 -48 -26 -50 -29
-50 -69 0 -52 49 -154 91 -189 63 -53 147 -51 200 5 36 39 42 81 24 175 -21
111 -20 140 10 169 46 47 121 21 151 -51 19 -46 17 -83 -6 -129 -11 -21 -18
-40 -16 -43 2 -2 22 6 44 17 39 20 40 20 32 63 -31 161 -146 250 -246 189z"/>
<path d="M9786 4025 c-9 -35 -8 -40 7 -40 6 0 67 -83 135 -185 99 -148 123
-190 120 -212 -3 -16 -2 -28 1 -28 5 0 31 35 63 86 6 8 -2 11 -24 10 -28 -1
-36 6 -69 53 l-38 53 51 75 50 75 52 -7 c64 -8 101 -26 100 -48 -3 -29 10 -18
46 41 46 74 46 74 17 61 -20 -9 -65 -3 -248 36 -123 25 -231 48 -240 51 -11 3
-19 -3 -23 -21z m269 -111 c0 -13 -76 -124 -85 -124 -6 0 -120 164 -120 174 0
2 46 -7 103 -19 56 -12 102 -26 102 -31z"/>
<path d="M2813 3847 c-18 -12 -33 -24 -33 -27 0 -3 18 -4 41 -2 34 4 45 0 70
-24 16 -15 29 -34 29 -41 0 -19 -308 -271 -336 -275 -24 -3 -24 -3 12 -48 38
-48 62 -65 50 -35 -7 20 19 47 160 162 53 43 112 91 131 108 l36 29 23 -28
c26 -29 32 -83 14 -117 -15 -28 0 -23 38 12 23 21 31 34 24 42 -70 89 -215
262 -220 264 -4 1 -22 -8 -39 -20z"/>
<path d="M9473 3615 c-24 -30 -43 -56 -43 -58 0 -2 12 -2 28 0 23 3 51 -18
177 -126 105 -91 151 -138 155 -156 5 -24 11 -19 95 80 50 58 91 112 93 118 1
7 -14 28 -34 47 -26 24 -35 29 -29 15 23 -57 18 -90 -25 -143 -26 -33 -45 -50
-53 -45 -19 12 -301 255 -310 267 -4 6 -5 21 -2 34 8 35 -6 25 -52 -33z"/>
<path d="M3137 3506 c4 -21 -18 -49 -138 -176 -119 -127 -146 -150 -165 -146
-13 4 24 -40 99 -113 l121 -119 48 36 c26 20 46 37 44 39 -1 2 -17 -2 -35 -8
-51 -18 -91 -4 -150 51 -29 28 -51 55 -49 60 2 5 34 41 73 81 l69 72 39 -44
c32 -35 38 -49 35 -76 -2 -18 -2 -33 2 -32 3 0 22 21 44 45 l39 44 -35 0 c-26
0 -42 9 -73 40 l-39 40 64 67 c36 37 66 70 68 72 1 3 27 -20 57 -49 53 -53 55
-56 55 -110 l1 -55 29 35 c16 19 30 38 30 43 0 7 -216 220 -230 225 -4 1 -5
-8 -3 -22z"/>
<path d="M9347 3472 c-20 -21 -37 -40 -37 -43 0 -3 14 -3 31 -1 28 4 39 -4
131 -99 54 -57 108 -117 119 -134 53 -82 -14 -185 -121 -185 -45 0 -46 1 -163
122 -101 105 -117 127 -114 151 2 15 1 27 -3 27 -3 0 -28 -23 -55 -51 -30 -32
-42 -49 -30 -45 16 6 42 -16 145 -122 134 -139 156 -152 234 -138 48 9 121 77
142 131 16 42 16 48 0 88 -10 26 -54 82 -119 152 -117 124 -130 143 -116 168
17 29 -5 19 -44 -21z"/>
<path d="M3422 3197 c-32 -33 -45 -60 -17 -37 36 30 144 3 145 -36 0 -6 -17
-31 -38 -55 -21 -24 -76 -91 -121 -149 -96 -121 -105 -130 -131 -123 -11 3
-20 3 -20 0 0 -5 105 -87 112 -87 3 0 3 11 1 24 -4 18 22 57 124 184 70 89
132 161 136 161 5 1 22 -13 39 -29 28 -28 30 -36 25 -78 l-5 -46 29 34 c16 19
29 40 29 47 0 7 -26 31 -57 54 -32 24 -92 71 -134 106 -43 35 -79 63 -81 63
-2 0 -18 -15 -36 -33z"/>
<path d="M8997 3119 c-134 -32 -227 -138 -227 -261 0 -72 16 -113 67 -168 49
-55 103 -80 176 -80 101 0 202 71 247 173 21 47 21 49 3 75 l-17 27 -7 -50
c-7 -60 -27 -100 -66 -137 -74 -71 -168 -62 -259 23 -123 117 -125 277 -4 339
47 24 114 26 154 5 16 -9 31 -14 33 -11 2 2 -4 20 -14 40 -19 37 -25 39 -86
25z"/>
<path d="M3795 2947 c6 -22 -11 -52 -100 -184 -112 -165 -131 -187 -152 -179
-30 12 -9 -12 44 -48 54 -38 56 -38 50 -14 -5 20 12 52 99 179 126 183 133
192 156 186 29 -8 21 10 -15 31 -19 11 -46 27 -61 37 l-27 18 6 -26z"/>
<path d="M8550 2827 c-19 -13 -77 -48 -129 -77 -81 -47 -91 -55 -70 -60 18 -5
48 -47 128 -184 92 -159 102 -180 92 -202 -6 -13 -9 -24 -7 -24 2 0 63 35 137
79 145 85 147 87 118 156 l-12 30 -7 -40 c-3 -22 -12 -50 -18 -62 -12 -22
-106 -83 -127 -83 -11 0 -121 178 -114 184 13 11 91 46 104 46 8 0 24 -9 35
-20 11 -11 20 -17 20 -14 0 11 -65 124 -72 124 -4 0 -5 -7 -2 -15 9 -21 -19
-59 -61 -85 -20 -12 -37 -21 -39 -19 -13 15 -98 170 -95 173 2 2 29 18 60 35
62 35 87 38 129 16 17 -9 30 -13 30 -10 0 10 -52 75 -59 75 -3 0 -22 -10 -41
-23z"/>
<path d="M4000 2761 c-47 -15 -87 -40 -119 -76 -48 -56 -63 -100 -59 -180 3
-62 7 -77 39 -120 48 -68 141 -116 223 -117 51 -1 61 3 84 27 17 18 21 26 11
22 -81 -28 -102 -30 -145 -19 -94 25 -144 93 -144 194 0 70 47 166 102 211 70
56 190 43 242 -26 31 -42 50 -102 42 -138 -8 -42 6 -36 33 15 l23 45 -21 29
c-75 106 -210 163 -311 133z"/>
<path d="M8043 2560 c-35 -16 -63 -32 -63 -36 0 -3 6 -4 14 -1 25 10 44 -16
97 -133 28 -63 67 -145 85 -183 28 -54 32 -71 24 -87 -6 -11 -7 -20 -2 -20 21
0 262 121 262 131 0 7 -5 29 -11 50 -13 43 -29 43 -29 0 0 -16 -9 -39 -19 -52
-19 -25 -117 -77 -126 -67 -13 12 -175 371 -175 386 0 10 5 23 12 30 20 20 -3
14 -69 -18z"/>
<path d="M4568 2528 c-16 -5 -28 -16 -28 -25 0 -23 -260 -293 -302 -312 l-37
-17 49 -21 c53 -23 56 -22 40 7 -8 14 -1 28 32 69 23 28 45 51 50 51 5 0 45
-14 89 -31 l80 -31 -3 -71 c-3 -62 -6 -73 -25 -82 -19 -10 -15 -13 48 -37 38
-14 69 -22 69 -17 0 4 -4 11 -10 14 -6 4 -10 102 -10 261 0 140 -3 254 -7 253
-5 0 -20 -5 -35 -11z m-31 -284 c-2 -3 -20 3 -40 11 -21 8 -53 22 -73 30 l-37
15 74 78 74 77 3 -104 c1 -57 1 -105 -1 -107z"/>
<path d="M7727 2439 c-57 -13 -91 -34 -130 -80 -84 -98 -69 -250 34 -343 55
-50 125 -73 187 -61 173 32 258 194 180 348 -31 61 -90 114 -149 131 -58 18
-67 18 -122 5z m52 -29 c112 -32 213 -212 182 -327 -21 -76 -101 -118 -181
-94 -50 15 -117 83 -149 151 -19 41 -25 71 -26 122 0 76 19 111 76 140 39 21
52 22 98 8z"/>
<path d="M5135 2315 c-51 -18 -127 -99 -143 -152 -17 -56 -15 -146 4 -191 61
-148 273 -190 387 -76 48 49 70 98 75 169 6 87 -11 139 -63 190 -67 68 -171
91 -260 60z m166 -28 c95 -64 112 -218 40 -351 -32 -61 -71 -86 -133 -86 -134
0 -200 195 -122 358 47 96 139 130 215 79z"/>
<path d="M7349 2318 c-42 -11 -36 7 -70 -215 -13 -84 -25 -153 -29 -153 -3 1
-14 15 -26 33 -52 82 -176 257 -185 263 -5 3 -33 0 -60 -6 -47 -12 -49 -13
-28 -24 27 -13 28 -16 70 -241 l34 -177 -25 -20 -24 -19 55 7 c63 8 81 19 46
28 -30 7 -40 33 -62 166 -9 52 -22 121 -30 153 -7 31 -9 55 -4 52 5 -3 61 -82
126 -176 l117 -170 17 108 c37 234 53 313 59 306 4 -4 27 -88 51 -186 43 -175
43 -179 25 -193 -19 -14 -19 -14 3 -14 30 0 114 21 126 31 5 5 0 9 -13 9 -29
0 -33 10 -87 229 -43 173 -45 185 -29 202 16 18 16 19 -2 18 -10 -1 -35 -5
-55 -11z"/>
<path d="M5578 2232 c17 -17 17 -26 -8 -224 -14 -114 -27 -209 -30 -211 -3 -2
-14 -9 -25 -15 -19 -11 -19 -11 5 -12 14 -1 49 -5 78 -9 28 -4 52 -4 52 1 0 4
-6 8 -14 8 -22 0 -24 20 -13 113 15 120 29 118 101 -17 31 -57 61 -108 68
-114 7 -5 36 -13 63 -17 l50 -7 -27 24 c-15 12 -50 63 -77 112 l-50 90 47 15
c92 31 123 135 62 205 -37 41 -65 51 -185 65 -119 14 -118 14 -97 -7z m202
-41 c55 -40 47 -154 -13 -192 -25 -15 -42 -18 -77 -13 -25 3 -46 7 -48 9 -4 4
17 193 24 214 6 18 80 7 114 -18z"/>
<path d="M6610 2211 c-188 -38 -252 -281 -112 -422 121 -121 327 -74 392 89
20 52 9 170 -23 224 -29 51 -84 91 -142 107 -44 12 -63 12 -115 2z m77 -22
c41 -15 81 -57 111 -114 22 -42 26 -63 26 -135 0 -92 -11 -126 -58 -169 -38
-36 -110 -40 -156 -9 -139 94 -156 367 -26 424 38 16 66 17 103 3z"/>
<path d="M6009 2151 c-4 -52 4 -68 16 -31 10 31 54 60 92 60 l33 0 -6 -212
c-6 -196 -8 -214 -26 -230 -20 -17 -19 -18 33 -18 30 0 64 -3 77 -6 12 -4 22
-2 22 4 0 5 -9 12 -20 15 -20 5 -20 12 -18 224 l3 218 40 -3 c39 -3 58 -17 93
-68 11 -16 12 -12 6 31 -3 28 -7 51 -7 51 -1 1 -77 5 -168 9 l-167 7 -3 -51z"/>
</g>
</svg>
